<svg width="50" height="53" viewBox="0 0 50 53" fill="none" xmlns="http://www.w3.org/2000/svg">
<path d="M25.1258 2.67871L34.7928 6.99436V7.72808C35.3086 7.66263 35.8307 7.66263 36.3465 7.72808C39.6241 8.97219 42.8236 10.4134 45.9272 12.0437L46.8766 13.1226C47.3366 15.6704 47.4671 18.2667 47.2651 20.8477C44.2441 22.315 40.7484 23.8686 37.8138 25.4223C37.5447 25.6618 37.256 25.8784 36.9507 26.0696V26.458L38.7632 27.6232C41.3095 28.7884 43.6399 30.04 46.0998 31.3779C46.963 31.7663 47.0493 31.6367 47.4377 32.3704V40.3544C44.0715 41.8649 40.7053 43.3753 37.3822 45.0152L36.0875 45.5763C33.3687 46.6983 28.492 48.6835 25.9457 49.8919C25.5166 49.957 25.0802 49.957 24.6511 49.8919C23.3132 49.0288 16.7966 46.2237 14.423 44.9722C14.4356 44.6169 14.3293 44.2675 14.1209 43.9795C14.1845 43.7684 14.1845 43.5433 14.1209 43.3322C13.7325 44.1953 13.8619 44.2816 13.1714 44.67L2.94336 40.3544C2.94336 37.5492 2.94336 34.8304 2.94336 32.0252L4.2812 31.3779C7.21584 29.8242 10.4526 28.3137 13.4735 26.8464C13.9051 26.458 13.7756 26.8464 13.9051 26.1128L12.783 25.4223C9.71892 23.9118 6.18007 22.3582 2.98649 21.1066V12.95C3.20227 12.6047 3.9791 12.3458 4.41066 12.1732C7.34531 10.7059 10.582 9.28171 13.603 7.85754L15.3724 7.03756C18.4365 5.82918 21.9754 3.93025 25.1258 2.67871Z" stroke="white" stroke-width="4.31565" stroke-linecap="round" stroke-linejoin="round"/>
<path d="M25.1076 2.67871L34.7747 6.99436C33.3505 7.9438 27.1791 10.49 25.0213 11.5689C22.4319 10.3606 17.4258 8.2891 15.1816 6.90809C18.4184 5.82918 21.9572 3.93025 25.1076 2.67871Z" stroke="white" stroke-width="4.31565" stroke-linecap="round" stroke-linejoin="round"/>
<path d="M36.2631 7.77075C39.5408 9.01486 42.7402 10.456 45.8439 12.0864C42.8661 13.64 39.3272 15.1936 36.3063 16.6178L26.5098 12.3021C29.7033 10.7053 33.0695 9.49701 36.2631 7.77075Z" stroke="white" stroke-width="4.31565" stroke-linecap="round" stroke-linejoin="round"/>
<path d="M13.416 7.81396C16.7982 9.15774 20.111 10.6702 23.342 12.3455L14.0633 16.4453C10.6501 15.3322 7.35439 13.8867 4.22363 12.1296C7.15827 10.6191 10.395 9.19497 13.416 7.81396Z" stroke="white" stroke-width="4.31565" stroke-linecap="round" stroke-linejoin="round"/>
<path d="M36.9442 37.1605C40.2237 35.3905 43.6276 33.8616 47.1291 32.5859V40.3541C43.7629 41.8645 40.3967 43.3749 37.0737 45.0149C36.8437 42.4031 36.8005 39.7784 36.9442 37.1605Z" stroke="white" stroke-width="4.31565" stroke-linecap="round" stroke-linejoin="round"/>
<path d="M46.7969 13.2087C47.2569 15.7565 47.3874 18.3528 47.1854 20.9338C44.1644 22.4011 40.6687 23.9547 37.7341 25.5084L37.3025 25.2494C36.82 22.7612 36.7326 20.2125 37.0436 17.6971C40.2149 16.0333 43.4704 14.5352 46.7969 13.2087Z" stroke="white" stroke-width="4.31565" stroke-linecap="round" stroke-linejoin="round"/>
<path d="M2.80859 12.8643C6.26111 14.2453 9.58419 15.8852 12.9504 17.482C13.1096 20.16 13.0229 22.8469 12.6914 25.5091C9.62732 23.9986 6.08851 22.445 2.89493 21.1934L2.80859 12.8643Z" stroke="white" stroke-width="4.31565" stroke-linecap="round" stroke-linejoin="round"/>
<path d="M2.84375 32.1116C5.90786 33.7515 9.70565 35.4347 12.9424 36.902V45.0585L2.93008 40.3545C2.93008 37.6356 2.88691 34.9167 2.84375 32.1116Z" stroke="white" stroke-width="4.31565" stroke-linecap="round" stroke-linejoin="round"/>
<path d="M25.5621 42.2965L35.5744 37.6355C35.7258 40.3379 35.7258 43.0466 35.5744 45.7489C32.8555 46.871 27.9789 48.8562 25.4326 50.0646C25.4326 47.6047 25.5189 44.929 25.5621 42.2965Z" stroke="white" stroke-width="4.31565" stroke-linecap="round" stroke-linejoin="round"/>
<path d="M14.1162 37.5493L24.1285 42.2102C24.1285 44.5838 24.1285 47.9931 24.1285 50.2804C22.7906 49.4173 16.274 46.6122 13.9004 45.3606C14.332 42.8576 14.1162 40.0955 14.1162 37.5493Z" stroke="white" stroke-width="4.31565" stroke-linecap="round" stroke-linejoin="round"/>
<path d="M31.3762 29.5649C34.354 28.2703 35.1308 26.6735 38.5402 27.8387C41.0864 29.0039 43.4168 30.2555 45.8768 31.5933C43.4168 32.9312 39.1012 34.83 36.3823 35.909L31.333 33.5354L31.3762 29.5649Z" stroke="white" stroke-width="4.31565" stroke-linecap="round" stroke-linejoin="round"/>
<path d="M13.3828 26.9333C16.5764 28.5301 17.0079 34.3131 14.0301 35.5646C10.5823 34.5442 7.27649 33.0942 4.19043 31.249C7.12507 29.9111 10.3618 28.4007 13.3828 26.9333Z" stroke="white" stroke-width="4.31565" stroke-linecap="round" stroke-linejoin="round"/>
<path d="M16.9697 28.5291C19.7317 29.9101 22.2348 31.0321 25.04 32.2404L30.0461 29.9964C30.0461 32.37 30.0461 36.7288 30.0461 38.8866C28.5357 39.4908 26.6368 40.4834 25.1694 41.1739L17.0129 37.4193C16.9697 34.4846 16.9697 31.4637 16.9697 28.5291Z" stroke="white" stroke-width="4.31565" stroke-linecap="round" stroke-linejoin="round"/>
<path d="M24.9413 12.9495C28.2404 14.2096 31.4676 15.6504 34.6083 17.2651C31.5874 18.6893 28.0917 20.1998 25.0276 21.5808C21.9203 20.2861 18.4247 18.603 15.3174 17.2651C18.4247 15.8409 21.7909 14.4599 24.9413 12.9495Z" stroke="white" stroke-width="4.31565" stroke-linecap="round" stroke-linejoin="round"/>
<path d="M35.0825 18.4304H35.3846C35.8901 20.9287 36.0355 23.4864 35.8162 26.0259C32.6226 27.5363 29.3859 28.9605 26.1923 30.3415H25.9334C25.4423 27.8266 25.3115 25.2546 25.545 22.7029C28.8249 21.365 31.8458 20.0272 35.0825 18.4304Z" stroke="white" stroke-width="4.31565" stroke-linecap="round" stroke-linejoin="round"/>
<path d="M14.1035 17.9993C17.3403 19.4234 20.9654 21.236 24.2021 22.7465V30.7304C20.8791 29.1336 17.5129 27.5368 14.1467 26.0695L14.1035 17.9993Z" stroke="white" stroke-width="4.31565" stroke-linecap="round" stroke-linejoin="round"/>
</svg>
